<?xml version="1.0" encoding="utf-8"?>
<!-- Generator: Adobe Illustrator 26.2.1, SVG Export Plug-In . SVG Version: 6.00 Build 0)  -->
<svg version="1.1" id="레이어_1" xmlns="http://www.w3.org/2000/svg" xmlns:xlink="http://www.w3.org/1999/xlink" x="0px"
	 y="0px" viewBox="0 0 927.7 702.5" style="enable-background:new 0 0 927.7 702.5;" xml:space="preserve">
<style type="text/css">
	.st0{fill:#997DFF;}
	.st1{fill:#ED9DA0;}
	.st2{fill:#4C4C4C;}
	.st3{fill:#111111;}
	.st4{fill:#FFFFFF;}
	.st5{fill:#D6D6E3;}
</style>
<path class="st0" d="M351.5,625.1c-0.9,0-1.8-0.2-2.6-0.5l-57.4-20.9c-3.4-1.2-5.4-4.3-5.1-7.9c0.3-3.6,2.7-6.3,6.2-7l158.5-31
	c1.3-0.3,2.6-0.2,3.9,0.2l44.3,14.2c3.4,1.1,5.5,4.1,5.4,7.6s-2.4,6.4-5.8,7.3l-145.4,37.7C352.8,625.1,352.2,625.1,351.5,625.1
	L351.5,625.1z"/>
<path class="st1" d="M512.8,523.3l141.1,17l-25.7,49.6l-124.4-18.1c-10.2,7.3-24.5,10.5-39.3,7.7c-25.9-4.8-43.7-26.1-39.7-47.5
	c4-21.4,28.2-34.9,54.1-30.1C493.8,504.7,505.9,512.8,512.8,523.3z"/>
<path class="st1" d="M708.8,125.1C692.6,65.2,630.9,29.8,571.1,46s-95.3,77.8-79.1,137.7c13.1,48.6,56.2,81,103.9,82.9l58.4,132.9
	L737,281.6c0,0-31-23.2-52.4-53C708.7,201.3,719,162.8,708.8,125.1L708.8,125.1z"/>
<path class="st2" d="M822.4,357c-15.1-37.4-51.3-61.9-91.6-62.2c-50.9-0.5-115.6,12.8-118.3,83.1c-4.4,116.4,0,69.5,0,69.5
	s-35.1,87.4,0,129.6s65.7,125.3,65.7,125.3h213.3c0,0-36.8-97.3-30.5-163.7C865.4,493.4,844.9,412.7,822.4,357L822.4,357z"/>
<path class="st3" d="M523.5,463.4l-136,132.8l8.2,2.9L533,469.7C533,469.7,534.6,460.2,523.5,463.4L523.5,463.4z"/>
<path class="st0" d="M927.4,397.8c-5.8,10.5-22.7,9.9-31,1.2s-9.7-22-8.4-34s4.8-23.8,4.6-35.8c-0.5-23-14.5-43.4-29.9-60.5
	s-33-32.8-43.5-53.2l-1.3-1.3c4.5-14.8-6.4-30-18.7-39.5s-27-16.7-35.4-29.8c-7.1-11.1-8.6-24.8-11.7-37.6
	C740,57.7,698.2,16.5,648.4,5.1s-105.4,7.6-137.9,47l0.8-1.6c-21.1,4.3-39,21.4-44.3,42.3c-1.5,6-2,12.5,0,18.4s7,11,13.1,12
	c6.6,1,13.2-2.8,17.3-8.1c4.1-5.3,6.1-11.9,8.1-18.3c7.3,26.9,30.4,49,57.6,55.1c-0.9,7.3,2.4,15,8.4,19.3s14.3,5.1,21,1.9l1.6-1.5
	c7.7,0.3,15.4,0.7,23.1,1c-12.4,16.8-17.5,38.8-13.8,59.4s16.1,39.4,33.5,50.9c13.9,9.2,30.4,13.6,46.5,17.7
	c16.2,4.1,32.7,8.2,46.9,16.9c14.3,8.7,26.2,22.8,27.8,39.4s-9.8,34.7-26.4,36.6c12.6,7.7,25.2,15.5,37.8,23.2
	c-1.1,28.6,20.1,56.4,47.9,63c-2.5,8.5-5.1,17.1-7.6,25.6c15.5-5.5,32.4-0.5,48.8,1.2c16.3,1.7,36.2-2.3,42.4-17.5
	c6.7-16.1-6.1-33.3-17.9-46.1C907.2,445.6,930.4,421.9,927.4,397.8L927.4,397.8z"/>
<g id="XMLID_00000052063132560034712130000005520240164664187520_">
	<g>
		<polygon class="st4" points="163,441.7 153.5,203.9 161.9,197.9 385.3,215.9 408,226.3 417.5,427.1 		"/>
		<path class="st0" d="M159.8,443.5l-9.6-241.1l10.7-7.7h0.6l224.6,18.1l25,11.5v1l9.7,204.9l-260.9,14.9L159.8,443.5z M153.5,203.9
			l9.5,237.8l254.5-14.6L408,226.3l-22.7-10.4l-223.4-18L153.5,203.9z"/>
	</g>
	<g>
	</g>
</g>
<path class="st5" d="M387.9,358.3H189.1c-7.9,0-14.3-6.4-14.3-14.3l-3-59.3c0-3.9,1.6-7.6,4.4-10.3c2.8-2.7,6.6-4.1,10.5-4
	l198.9,8.7c7.7,0.3,13.7,6.6,13.7,14.3l3,50.6C402.3,351.8,395.8,358.3,387.9,358.3L387.9,358.3z"/>
<path class="st0" d="M267.4,358.5l-79.4-1c-7.5,0-13.5-6.1-13.5-13.5l-2-59.3c0-7.7,6.4-13.9,14.1-13.5l77.4,2.3L267.4,358.5z"/>
<polygon class="st3" points="281.2,300.6 338.7,302.6 338.7,305.8 281.2,303.8 "/>
<polygon class="st3" points="281.2,318.2 383.6,320.2 383.6,323.4 281.2,321.4 "/>
<path class="st0" d="M411.6,228.7l-260.9-19.8l-1-17.1c0-4.4,1.9-8.7,5.2-11.7s7.7-4.4,12.1-4l231.4,23.3
	c8.1,0.8,12.2,7.5,12.2,15.7L411.6,228.7z"/>
<circle class="st4" cx="173.3" cy="193.8" r="5.5"/>
<circle class="st4" cx="192.3" cy="197" r="5.5"/>
<circle class="st4" cx="209.7" cy="198.6" r="5.5"/>
<path class="st1" d="M463.6,602.6L601,638.9l-32.3,45.6L448,649.4c-11.2,5.8-25.7,7-40,2.2c-25-8.4-39.6-31.9-32.7-52.6
	c6.9-20.7,32.8-30.7,57.8-22.3C447.2,581.6,458.1,591.3,463.6,602.6L463.6,602.6z"/>
<path class="st2" d="M737,447.4c0,0-6,263.6-92,254.8s-114.4-19.9-114.4-19.9s-17.4-66.4,12.6-68s69.2-9,69.2-9V414.2"/>
</svg>
