<?xml version="1.0" encoding="utf-8"?>
<!-- Generator: Adobe Illustrator 26.2.1, SVG Export Plug-In . SVG Version: 6.00 Build 0)  -->
<svg version="1.1" id="레이어_1" xmlns="http://www.w3.org/2000/svg" xmlns:xlink="http://www.w3.org/1999/xlink" x="0px"
	 y="0px" viewBox="0 0 16 16" style="enable-background:new 0 0 16 16;" xml:space="preserve">
<style type="text/css">
	.st0{fill:#997DFF;}
</style>
<g>
	<path d="M8,16L8,16c-4.42,0-8-3.58-8-8v0c0-4.42,3.58-8,8-8h0c4.42,0,8,3.58,8,8v0C16,12.42,12.42,16,8,16z"/>
</g>
<g>
	<rect x="-21.41" y="13.51" width="16" height="16"/>
</g>
<g>
	<path class="st0" d="M3,4.92h2.25c1.31,0,1.95,0.71,1.95,1.61c0,0.76-0.47,1.16-1.04,1.3V7.9c0.61,0.03,1.27,0.57,1.27,1.52
		c0,0.94-0.65,1.66-2.08,1.66H3V4.92z M6.28,6.62c0-0.51-0.35-0.89-1.09-0.89H3.93v1.86h1.24C5.8,7.58,6.28,7.2,6.28,6.62z
		 M6.51,9.38c0-0.59-0.47-1.06-1.21-1.06H3.93v1.96h1.33C6.15,10.28,6.51,9.89,6.51,9.38z"/>
	<path class="st0" d="M8.44,4.92h2.19c1.43,0,2.13,0.8,2.13,1.93c0,0.83-0.37,1.46-1.12,1.73L13,11.08h-1.06l-1.25-2.32h-0.06H9.37
		v2.32H8.44V4.92z M10.54,7.95c0.91,0,1.28-0.4,1.28-1.1s-0.37-1.13-1.28-1.13H9.37v2.23H10.54z"/>
</g>
<text transform="matrix(1 0 0 1 21.8124 11.5349)" class="st0" style="font-family:'Pretendard-Medium-KSCpc-EUC-H'; font-size:10px;">BR</text>
<g>
	<g>
		<path class="st0" d="M45.5,6.17c0.02-0.02,0.04-0.04,0.06-0.06c-0.08,0.02-0.16,0.04-0.24,0.06c0.28,0.07,0.46,1.11,0.52,1.34
			c0.11,0.42,0.19,0.85,0.26,1.29c0.14,0.94,0.2,1.88,0.26,2.83c0.02,0.32,0.5,0.32,0.5,0c-0.04-2.42,0.08-4.91,1.09-7.15
			c-0.15-0.02-0.3-0.04-0.46-0.06c0.4,1.35-0.54,2.5-1.37,3.46c-0.21,0.24,0.11,0.57,0.35,0.35c0.38-0.34,0.8-0.63,1.26-0.84
			c0.15-0.07,0.48-0.23,0.63-0.04c0.09,0.11,0.03,0.36,0,0.47C48.3,8.1,48.2,8.36,48.09,8.61c-0.41,0.97-0.97,1.85-1.53,2.73
			c0.15,0.06,0.3,0.13,0.46,0.19c0.18-0.94,0.38-1.88,0.6-2.82c0.2-0.84,0.45-1.69,0.92-2.42c0.45-0.68,1.29-1.44,2.16-1.44
			c0.64,0,0.42,0.83,0.27,1.2c-0.18,0.45-0.49,0.81-0.9,1.07c-0.16,0.11-0.16,0.32,0,0.43c1.33,0.91,2.44,2.08,3.28,3.46
			c0.13,0.22,0.45,0.12,0.47-0.13c0.07-1.12,0.04-2.23-0.1-3.34c-0.11-0.87-0.19-1.91-0.78-2.6c-0.14-0.16-0.35-0.05-0.42,0.11
			c-0.79,1.92,0.12,3.88,1,5.59c0.11,0.21,0.5,0.12,0.47-0.13c-0.21-1.74,0.28-3.49,1.4-4.85c-0.13-0.02-0.26-0.03-0.39-0.05
			c0.2,0.43-0.01,0.9-0.16,1.31c-0.14,0.38-0.28,0.75-0.43,1.13c-0.32,0.81-0.67,1.62-1.04,2.41c-0.13,0.29,0.3,0.54,0.43,0.25
			c0.44-0.95,0.85-1.9,1.22-2.88c0.3-0.77,0.79-1.66,0.4-2.48c-0.06-0.14-0.3-0.17-0.39-0.05c-1.2,1.46-1.78,3.33-1.55,5.21
			c0.16-0.04,0.31-0.08,0.47-0.13c-0.82-1.6-1.68-3.4-0.95-5.2c-0.14,0.04-0.28,0.07-0.42,0.11c0.58,0.67,0.62,1.96,0.7,2.81
			c0.09,0.93,0.1,1.86,0.04,2.79c0.16-0.04,0.31-0.08,0.47-0.13c-0.88-1.46-2.05-2.69-3.45-3.64c0,0.14,0,0.29,0,0.43
			c0.83-0.54,1.44-1.56,1.28-2.57C51.44,3.9,50,4.42,49.39,4.79c-0.98,0.58-1.56,1.57-1.92,2.62c-0.44,1.29-0.68,2.66-0.94,3.99
			c-0.05,0.27,0.3,0.44,0.46,0.19c0.44-0.69,0.88-1.39,1.25-2.13c0.28-0.57,0.74-1.35,0.67-2c-0.17-1.58-2.25-0.05-2.78,0.42
			c0.12,0.12,0.24,0.24,0.35,0.35c0.95-1.1,1.95-2.41,1.5-3.95c-0.06-0.19-0.36-0.27-0.46-0.06c-1.05,2.33-1.2,4.88-1.16,7.4
			c0.17,0,0.33,0,0.5,0c-0.08-1.28-0.16-2.57-0.43-3.82c-0.09-0.4-0.5-2.67-1.28-2C44.91,6.03,45.26,6.38,45.5,6.17L45.5,6.17z"/>
	</g>
</g>
</svg>
